<?xml version="1.0" encoding="UTF-8"?>
<!-- Generator: Adobe Illustrator 26.0.2, SVG Export Plug-In . SVG Version: 6.00 Build 0)  -->
<svg version="1.1" xmlns="http://www.w3.org/2000/svg" xmlns:xlink="http://www.w3.org/1999/xlink" x="0px" y="0px" viewBox="0 0 280 180" style="enable-background:new 0 0 280 180;" xml:space="preserve">
<style type="text/css">
	.st0{fill:#FFFFFF;}
	.st1{display:none;}
	.st2{display:inline;}
	.st3{fill:none;stroke:#000000;stroke-miterlimit:10;}
	.st4{fill:none;stroke:#2B67B1;stroke-width:2;stroke-miterlimit:10;}
	.st5{fill:#2B67B1;}
	.st6{fill:none;stroke:#2B67B1;stroke-miterlimit:10;}
	.st7{fill:none;stroke:#2B67B1;stroke-miterlimit:10;stroke-dasharray:4.9899,4.9899;}
	.st8{fill:none;stroke:#4A9090;stroke-width:2;stroke-miterlimit:10;}
	.st9{fill:#4A9090;}
	.st10{display:inline;fill:#919191;stroke:#000000;stroke-miterlimit:10;}
	.st11{fill:none;stroke:#2B67B1;stroke-miterlimit:10;stroke-dasharray:4.8784,4.8784;}
	.st12{fill:#919191;stroke:#000000;stroke-miterlimit:10;}
	.st13{fill:none;stroke:#2B67B1;stroke-miterlimit:10;stroke-dasharray:5.0824,5.0824;}
</style>
<g id="Layer_5">
	<rect class="st0" width="280" height="180"/>
</g>
<g id="Layer_1" class="st1">
	<g class="st2">
		<g>
			<path d="M100.8,46l0.7-2c0.3-0.1,0.5-0.1,0.7-0.1c0.2,0,0.6,0,1.1,0.1c0.5,0,0.8,0.1,1,0.1c0.4,0,0.7,0,1-0.1l0.2,0.2     c-1.6,2-2.4,3.8-2.4,5.6c0,0.6,0.1,1,0.4,1.4s0.6,0.5,1,0.5c0.6,0,1.1-0.3,1.6-0.9s0.9-1.3,1.2-2.2s0.5-1.7,0.5-2.4     c0-0.8-0.3-1.2-0.8-1.2c-0.1,0-0.3,0-0.4,0.1l-0.1,0l-0.1-0.2v-0.1c0.2-0.2,0.4-0.4,0.7-0.6l0.3-0.3c0.1-0.1,0.2-0.1,0.3-0.1     c0.4,0,0.7,0.2,0.9,0.5s0.3,0.7,0.3,1.2c0,1-0.3,2.1-0.9,3.3s-1.3,2.1-2.1,2.8c-0.8,0.7-1.5,1-2.2,1c-0.5,0-1-0.2-1.4-0.6     s-0.6-1-0.6-1.7c0-0.8,0.2-1.6,0.6-2.5s1.1-1.8,2.1-3c-0.1,0-0.6,0.1-1.3,0.1l-0.4,0c-0.4,0-0.8,0-1.1,0.1     c-0.1,0.1-0.3,0.5-0.6,1L101,46L100.8,46L100.8,46z"/>
		</g>
		<g>
			<g>
				<line class="st3" x1="102.4" y1="38.2" x2="107" y2="38.2"/>
				<g>
					<polygon points="106.5,40.2 109.9,38.2 106.5,36.2      "/>
				</g>
			</g>
		</g>
	</g>
	<g class="st2">
		<g>
			<path d="M182.5,161.4L182.5,161.4l0.6-2.1c0.2-0.1,0.4-0.1,0.6-0.1c0.2,0,0.5,0,0.9,0.1c0.4,0,0.7,0.1,0.9,0.1     c0.3,0,0.6,0,0.8-0.1l0.1,0.2c-1.4,2-2,3.8-2,5.6c0,1.2,0.3,1.8,0.9,1.8c0.4,0,0.9-0.5,1.5-1.6s1.1-3,1.4-5.8     c0.4-0.1,0.7-0.2,1.1-0.4l0.1,0.1c-0.7,2.8-1.1,4.8-1.1,6.1c0,0.5,0.1,0.8,0.3,1.1c0.2,0.3,0.4,0.4,0.7,0.4     c0.7,0,1.3-0.6,1.8-1.8s0.8-2.4,0.8-3.5c0-0.9-0.2-1.3-0.7-1.3c-0.1,0-0.3,0-0.4,0.1l-0.1,0l-0.1-0.2v-0.1     c0.3-0.3,0.6-0.6,0.8-0.9c0.1-0.1,0.3-0.1,0.4-0.1c0.7,0,1.1,0.6,1.1,1.8c0,0.9-0.2,2-0.7,3.1s-1,2.1-1.7,2.8     c-0.7,0.7-1.3,1.1-1.8,1.1c-0.4,0-0.7-0.2-0.9-0.5c-0.2-0.3-0.3-0.8-0.3-1.3c0-0.5,0-1.1,0.1-1.7l-0.5,1.1     c-0.3,0.7-0.7,1.3-1.1,1.7s-0.8,0.6-1.2,0.6c-0.4,0-0.7-0.2-1-0.6c-0.2-0.4-0.4-1-0.4-1.7c0-0.8,0.2-1.6,0.5-2.4s0.9-1.8,1.8-3     c-0.1,0-0.5,0.1-1.1,0.1l-0.3,0c-0.3,0-0.6,0-0.9,0.1c-0.1,0.1-0.3,0.5-0.5,1l-0.1,0.1H182.5z"/>
		</g>
		<g>
			<g>
				<line class="st3" x1="184.2" y1="153.5" x2="188.9" y2="153.5"/>
				<g>
					<polygon points="188.3,155.5 191.8,153.5 188.3,151.5      "/>
				</g>
			</g>
		</g>
	</g>
	<g class="st2">
		<path d="M7.4,163.3c0-0.7,0.1-1.5,0.3-2.3s0.6-1.6,1.2-2.3c0.6-0.7,1.3-1.3,2.1-1.7c0.8-0.4,1.8-0.6,2.9-0.6    c0.9,0,1.7,0.2,2.4,0.5c0.7,0.3,1.2,0.8,1.6,1.4c0.4,0.7,0.6,1.5,0.6,2.5c0,1.4-0.3,2.6-1,3.8c-0.6,1.2-1.5,2-2.5,2.6    c-1,0.5-2.1,0.8-3.2,0.8c-0.6,0-1.2-0.1-1.7-0.3c-0.6-0.2-1-0.5-1.5-0.9c-0.4-0.4-0.7-0.9-0.9-1.5C7.5,164.6,7.4,164,7.4,163.3z     M8.8,163.2c0,0.8,0.1,1.5,0.4,2.1s0.6,1,1.2,1.4c0.5,0.3,1.2,0.5,2,0.5c1,0,1.8-0.2,2.5-0.7c0.7-0.5,1.2-1.3,1.6-2.4    c0.4-1.1,0.6-2.2,0.6-3.2c0-0.6-0.1-1.1-0.2-1.6c-0.1-0.5-0.4-0.9-0.7-1.2c-0.3-0.4-0.7-0.6-1.2-0.8c-0.5-0.2-1-0.3-1.5-0.3    c-0.9,0-1.7,0.2-2.4,0.7c-0.7,0.5-1.2,1.2-1.6,2.3C9,160.9,8.8,162,8.8,163.2z"/>
	</g>
	<g class="st2">
		<g>
			<line class="st4" x1="22.6" y1="142.6" x2="183.9" y2="142.6"/>
			<g>
				<polygon class="st5" points="181,146.9 197.2,142.6 181,138.2     "/>
			</g>
		</g>
	</g>
	<g class="st2">
		<g>
			<line class="st6" x1="143.1" y1="142.6" x2="143.1" y2="140.1"/>
			<line class="st7" x1="143.1" y1="135.1" x2="143.1" y2="37.8"/>
			<line class="st6" x1="143.1" y1="35.3" x2="143.1" y2="32.8"/>
		</g>
	</g>
	<g class="st2">
		<g>
			<line class="st4" x1="22.6" y1="142.6" x2="133.3" y2="41.7"/>
			<g>
				<polygon class="st5" points="134,46.9 143.1,32.8 128.2,40.5     "/>
			</g>
		</g>
	</g>
	<g class="st2">
		<g>
			<line class="st8" x1="22.6" y1="142.6" x2="129.8" y2="142.6"/>
			<g>
				<polygon class="st9" points="126.8,146.9 143.1,142.6 126.8,138.2     "/>
			</g>
		</g>
	</g>
	<circle class="st10" cx="22.6" cy="142.6" r="5"/>
	<g class="st2">
		<g>
			<path d="M57,167l-0.1-0.1l0.3-1.2c0.2-0.8,0.4-2.1,0.8-4l0.7-3.7c0.1-0.6,0.2-1.1,0.2-1.6l0.1-1c0-0.2,0-0.3,0-0.4     c0-0.2-0.1-0.3-0.2-0.3c-0.1,0-0.2,0-0.4,0.1c-0.2,0.1-0.5,0.3-1.1,0.7l-0.1,0l-0.1-0.2l0-0.1c0.6-0.5,1.1-0.9,1.7-1.2     c0.6-0.3,1-0.5,1.2-0.5c0.3,0,0.4,0.1,0.4,0.4c0,0.3-0.2,1.3-0.5,2.9c0.7-1.1,1.4-1.9,2.2-2.5s1.5-0.8,2.1-0.8     c0.3,0,0.5,0.1,0.6,0.2c0.1,0.1,0.2,0.4,0.3,0.7s0.1,0.7,0.1,1.1c0,0.5-0.1,1.2-0.3,1.8c-0.2,0.7-0.4,1.3-0.7,1.8     s-0.5,0.9-0.9,1.3s-0.7,0.7-1.2,0.9c-0.5,0.3-0.9,0.5-1.2,0.7s-0.6,0.2-0.8,0.2c-0.2,0-0.3,0-0.4,0s-0.4-0.1-0.7-0.2l-0.7,4.7     C57.6,166.8,57.2,166.9,57,167z M59.2,161c0.5,0.3,1,0.4,1.5,0.4c0.4,0,0.8-0.1,1.1-0.3s0.7-0.6,1-1.3s0.6-1.4,0.8-2.1     s0.3-1.4,0.3-1.9c0-0.5,0-0.8-0.1-1s-0.3-0.3-0.5-0.3c-0.3,0-0.6,0.1-1,0.3s-0.8,0.5-1.2,1s-0.8,1-1.1,1.7     c-0.2,0.4-0.4,1-0.5,1.7L59.2,161z"/>
			<path d="M67,162.3l-0.2-0.1c0.4-1.3,0.8-2.7,1-4.2s0.4-2.4,0.4-2.8c0-0.3-0.1-0.4-0.2-0.4c-0.2,0-0.7,0.3-1.5,0.8l-0.1,0     l-0.1-0.2l0-0.1c0.5-0.4,1.1-0.8,1.6-1.1c0.6-0.3,1-0.5,1.3-0.5c0.2,0,0.4,0.1,0.4,0.4c0,0.3-0.2,1.5-0.6,3.4     c0.5-1,1.1-1.8,1.6-2.4s0.9-1.1,1.1-1.2c0.2-0.1,0.5-0.2,0.7-0.2c0.1,0,0.2,0,0.3,0.1l0,0.1c-0.1,0.3-0.2,0.9-0.3,1.9l-0.2,0.1     c-0.2-0.2-0.4-0.4-0.6-0.4c-0.2,0-0.4,0.1-0.6,0.2c-0.2,0.1-0.5,0.4-0.9,0.8s-0.6,0.9-0.9,1.4c-0.2,0.5-0.5,1.1-0.6,1.7     s-0.3,1.5-0.6,2.6C67.6,162.1,67.2,162.2,67,162.3z"/>
			<path d="M73.3,159.5c0-1.1,0.2-2.1,0.6-3.1s1-1.7,1.7-2.2c0.8-0.5,1.5-0.8,2.3-0.8c0.7,0,1.3,0.2,1.7,0.6s0.7,1.1,0.7,2.1     c0,1-0.2,2-0.7,3s-1,1.8-1.8,2.3s-1.5,0.8-2.2,0.8c-0.5,0-0.9-0.1-1.3-0.3s-0.6-0.5-0.8-0.9C73.4,160.6,73.3,160.1,73.3,159.5z      M74.7,159.4c0,0.5,0,0.9,0.1,1.2s0.3,0.5,0.5,0.7s0.6,0.3,0.9,0.3c0.4,0,0.7-0.1,1-0.3s0.6-0.6,0.8-1.1s0.5-1.2,0.6-1.9     s0.2-1.3,0.2-1.9c0-0.5-0.1-1-0.2-1.3s-0.3-0.6-0.5-0.7s-0.5-0.2-0.9-0.2c-0.9,0-1.6,0.5-2,1.6S74.7,158,74.7,159.4z"/>
			<path d="M79.7,166.9l0.1-0.9l0.1-0.1c0.3,0.1,0.4,0.2,0.5,0.2c0.1,0,0.1,0,0.2,0c0.3,0,0.5-0.2,0.7-0.5s0.4-1.4,0.7-3.1     c0-0.2,0.2-1.1,0.5-2.5c0.3-1.4,0.5-2.6,0.7-3.4l0.2-1.4c0-0.1,0-0.2,0-0.3c0-0.2-0.1-0.3-0.3-0.3c-0.2,0-0.7,0.2-1.4,0.7l-0.1,0     l-0.1-0.2l0-0.1c0.9-0.6,1.5-1,1.9-1.2s0.7-0.3,1-0.3c0.3,0,0.4,0.2,0.4,0.5c0,0.3-0.2,1.1-0.5,2.5l-0.9,4     c-0.3,1.3-0.6,2.4-0.9,3.3c-0.3,0.9-0.6,1.6-0.9,2.1s-0.6,0.8-0.8,0.9c-0.2,0.1-0.5,0.2-0.7,0.2C80.2,167,80,167,79.7,166.9z      M84.1,150.5c0-0.3,0.1-0.6,0.3-0.8s0.4-0.4,0.7-0.4c0.2,0,0.4,0.1,0.5,0.2c0.1,0.1,0.2,0.3,0.2,0.5c0,0.3-0.1,0.6-0.3,0.9     s-0.4,0.4-0.7,0.4c-0.2,0-0.4-0.1-0.5-0.2S84.1,150.8,84.1,150.5z"/>
			<path d="M86.1,164.4L86.1,164.4l0.4-1.2c0.1-0.1,0.3-0.1,0.4-0.1c0.1,0,0.3,0,0.7,0c0.3,0,0.5,0,0.6,0c0.2,0,0.4,0,0.6-0.1     l0.1,0.1c-0.9,1.1-1.4,2.2-1.4,3.3c0,0.7,0.2,1.1,0.6,1.1c0.3,0,0.6-0.3,1-0.9s0.7-1.8,1-3.4c0.3,0,0.5-0.1,0.8-0.2l0.1,0.1     c-0.5,1.6-0.8,2.8-0.8,3.5c0,0.3,0.1,0.5,0.2,0.7c0.1,0.2,0.3,0.3,0.5,0.3c0.5,0,0.9-0.3,1.2-1s0.5-1.4,0.5-2     c0-0.5-0.2-0.8-0.5-0.8c-0.1,0-0.2,0-0.3,0.1l-0.1,0l-0.1-0.1v-0.1c0.2-0.2,0.4-0.4,0.5-0.5c0.1,0,0.2-0.1,0.3-0.1     c0.5,0,0.7,0.3,0.7,1c0,0.6-0.2,1.2-0.5,1.8s-0.7,1.2-1.2,1.6c-0.5,0.4-0.9,0.6-1.2,0.6c-0.3,0-0.5-0.1-0.6-0.3     c-0.2-0.2-0.2-0.4-0.2-0.7c0-0.3,0-0.6,0.1-1l-0.3,0.6c-0.2,0.4-0.5,0.8-0.8,1c-0.3,0.2-0.6,0.4-0.8,0.4c-0.3,0-0.5-0.1-0.7-0.4     s-0.3-0.6-0.3-1c0-0.5,0.1-0.9,0.3-1.4c0.2-0.5,0.6-1,1.2-1.7c-0.1,0-0.3,0-0.7,0l-0.2,0c-0.2,0-0.4,0-0.6,0.1     c-0.1,0.1-0.2,0.3-0.3,0.6l-0.1,0H86.1z"/>
			<path d="M98.4,166.1c-1.2-1-2.2-2.3-2.8-3.7s-1-3-1-4.7c0-1.3,0.2-2.5,0.6-3.6s0.9-2,1.6-2.9c0.7-0.9,1.3-1.5,1.8-1.9l0.1,0     l0.3,0.3v0.1c-1.8,2-2.7,4.5-2.7,7.7c0,1.8,0.2,3.3,0.6,4.5c0.4,1.2,1.1,2.5,2.1,3.7l0,0.1l-0.3,0.3L98.4,166.1z"/>
			<path d="M99.9,155.8l0.7-2c0.3-0.1,0.5-0.1,0.7-0.1c0.2,0,0.6,0,1.1,0.1c0.5,0,0.8,0.1,1,0.1c0.4,0,0.7,0,1-0.1l0.2,0.2     c-1.6,2-2.4,3.8-2.4,5.6c0,0.6,0.1,1,0.4,1.4s0.6,0.5,1,0.5c0.6,0,1.1-0.3,1.6-0.9s0.9-1.3,1.2-2.2s0.5-1.7,0.5-2.4     c0-0.8-0.3-1.2-0.8-1.2c-0.1,0-0.3,0-0.4,0.1l-0.1,0l-0.1-0.2v-0.1c0.2-0.2,0.4-0.4,0.7-0.6l0.3-0.3c0.1-0.1,0.2-0.1,0.3-0.1     c0.4,0,0.7,0.2,0.9,0.5c0.2,0.3,0.3,0.7,0.3,1.2c0,1-0.3,2.1-0.9,3.3s-1.3,2.1-2.1,2.8s-1.5,1-2.2,1c-0.5,0-1-0.2-1.4-0.6     c-0.4-0.4-0.6-1-0.6-1.7c0-0.8,0.2-1.6,0.6-2.5s1.1-1.8,2.1-3c-0.1,0-0.6,0.1-1.3,0.1l-0.4,0c-0.4,0-0.8,0-1.1,0.1     c-0.1,0.1-0.3,0.5-0.6,1l-0.1,0.1L99.9,155.8L99.9,155.8z"/>
			<path d="M109.7,166.1l-0.1,0l-0.3-0.3v-0.1c1-1.2,1.7-2.5,2.1-3.7s0.6-2.7,0.6-4.5c0-3.2-0.9-5.7-2.7-7.7v-0.1l0.3-0.3l0.1,0     c0.9,0.7,1.8,1.7,2.6,3.2c0.9,1.5,1.3,3.2,1.3,5.2c0,1.6-0.3,3.2-1,4.6S110.9,165.1,109.7,166.1z"/>
		</g>
		<g>
			<g>
				<line class="st3" x1="101.2" y1="150.5" x2="105.9" y2="150.5"/>
				<g>
					<polygon points="105.3,152.5 108.8,150.5 105.3,148.5      "/>
				</g>
			</g>
		</g>
		<g>
			<g>
				<line class="st3" x1="86.7" y1="160.1" x2="91.2" y2="160.1"/>
				<g>
					<polygon points="90.8,161.6 93.4,160.1 90.8,158.6      "/>
				</g>
			</g>
		</g>
	</g>
	<g class="st2">
		<path d="M55.1,130.3c0-0.6,0.1-1.3,0.2-2.3s0.4-1.9,0.7-2.8c0.4-0.9,0.8-1.6,1.3-2.2c0.5-0.6,1.1-1,1.8-1.3s1.4-0.4,2.1-0.4    c1,0,1.8,0.3,2.2,0.9s0.7,1.5,0.7,2.7c0,0.7-0.1,1.5-0.3,2.4s-0.4,1.8-0.7,2.6c-0.3,0.8-0.6,1.4-0.9,1.9c-0.3,0.5-0.7,0.9-1.2,1.3    c-0.4,0.4-0.9,0.7-1.4,0.8s-1,0.3-1.5,0.3c-1.1,0-1.8-0.3-2.3-1S55.1,131.6,55.1,130.3z M56.8,127.6c-0.1,0.8-0.2,1.4-0.2,1.7    s0,0.6,0,0.9c0,1.1,0.2,2,0.5,2.5s0.8,0.9,1.5,0.9c0.7,0,1.2-0.2,1.7-0.6c0.5-0.4,0.9-1.1,1.3-2.1c0.4-1,0.8-2.1,1-3.4H56.8z     M62.5,127c0.2-1,0.3-1.9,0.3-2.4c0-1-0.2-1.7-0.5-2.1s-0.8-0.7-1.4-0.7c-0.9,0-1.7,0.5-2.4,1.5s-1.3,2.3-1.6,3.8H62.5z"/>
	</g>
</g>
<g id="Layer_2">
	<g>
		<g>
			<path d="M116.3,62.2l0.7-2c0.3-0.1,0.5-0.1,0.7-0.1c0.2,0,0.6,0,1.1,0.1c0.5,0,0.8,0.1,1,0.1c0.4,0,0.7,0,1-0.1l0.2,0.2     c-1.6,2-2.4,3.8-2.4,5.6c0,0.6,0.1,1,0.4,1.4s0.6,0.5,1,0.5c0.6,0,1.1-0.3,1.6-0.9s0.9-1.3,1.2-2.2s0.5-1.7,0.5-2.4     c0-0.8-0.3-1.2-0.8-1.2c-0.1,0-0.3,0-0.4,0.1l-0.1,0l-0.1-0.2v-0.1c0.2-0.2,0.4-0.4,0.7-0.6l0.3-0.3c0.1-0.1,0.2-0.1,0.3-0.1     c0.4,0,0.7,0.2,0.9,0.5s0.3,0.7,0.3,1.2c0,1-0.3,2.1-0.9,3.3s-1.3,2.1-2.1,2.8c-0.8,0.7-1.5,1-2.2,1c-0.5,0-1-0.2-1.4-0.6     s-0.6-1-0.6-1.7c0-0.8,0.2-1.6,0.6-2.5s1.1-1.8,2.1-3c-0.1,0-0.6,0.1-1.3,0.1l-0.4,0c-0.4,0-0.8,0-1.1,0.1     c-0.1,0.1-0.3,0.5-0.6,1l-0.1,0.1L116.3,62.2L116.3,62.2z"/>
		</g>
		<g>
			<g>
				<line class="st3" x1="117.9" y1="54.5" x2="122.5" y2="54.5"/>
				<g>
					<polygon points="122,56.5 125.4,54.5 122,52.5      "/>
				</g>
			</g>
		</g>
	</g>
	<g>
		<g>
			<path d="M46.9,157.1L46.9,157.1l0.6-2.1c0.2-0.1,0.4-0.1,0.6-0.1c0.2,0,0.5,0,0.9,0.1c0.4,0,0.7,0.1,0.9,0.1c0.3,0,0.6,0,0.8-0.1     l0.1,0.2c-1.4,2-2,3.8-2,5.6c0,1.2,0.3,1.8,0.9,1.8c0.4,0,0.9-0.5,1.5-1.6s1.1-3,1.4-5.8c0.4-0.1,0.7-0.2,1.1-0.4l0.1,0.1     c-0.7,2.8-1.1,4.8-1.1,6.1c0,0.5,0.1,0.8,0.3,1.1c0.2,0.3,0.4,0.4,0.7,0.4c0.7,0,1.3-0.6,1.8-1.8s0.8-2.4,0.8-3.5     c0-0.9-0.2-1.3-0.7-1.3c-0.1,0-0.3,0-0.4,0.1l-0.1,0l-0.1-0.2v-0.1c0.3-0.3,0.6-0.6,0.8-0.9c0.1-0.1,0.3-0.1,0.4-0.1     c0.7,0,1.1,0.6,1.1,1.8c0,0.9-0.2,2-0.7,3.1s-1,2.1-1.7,2.8c-0.7,0.7-1.3,1.1-1.8,1.1c-0.4,0-0.7-0.2-0.9-0.5s-0.3-0.8-0.3-1.3     c0-0.5,0-1.1,0.1-1.7l-0.5,1.1c-0.3,0.7-0.7,1.3-1.1,1.7s-0.8,0.6-1.2,0.6c-0.4,0-0.7-0.2-1-0.6c-0.2-0.4-0.4-1-0.4-1.7     c0-0.8,0.2-1.6,0.5-2.4c0.3-0.8,0.9-1.8,1.8-3c-0.1,0-0.5,0.1-1.1,0.1l-0.3,0c-0.3,0-0.6,0-0.9,0.1c-0.1,0.1-0.3,0.5-0.5,1     l-0.1,0.1H46.9z"/>
		</g>
		<g>
			<g>
				<line class="st3" x1="48.5" y1="149.3" x2="53.2" y2="149.3"/>
				<g>
					<polygon points="52.6,151.3 56.1,149.3 52.6,147.3      "/>
				</g>
			</g>
		</g>
	</g>
	<g>
		<path d="M7.4,163.3c0-0.7,0.1-1.5,0.3-2.3s0.6-1.6,1.2-2.3c0.6-0.7,1.3-1.3,2.1-1.7c0.8-0.4,1.8-0.6,2.9-0.6    c0.9,0,1.7,0.2,2.4,0.5c0.7,0.3,1.2,0.8,1.6,1.4c0.4,0.7,0.6,1.5,0.6,2.5c0,1.4-0.3,2.6-1,3.8c-0.6,1.2-1.5,2-2.5,2.6    c-1,0.5-2.1,0.8-3.2,0.8c-0.6,0-1.2-0.1-1.7-0.3c-0.6-0.2-1-0.5-1.5-0.9c-0.4-0.4-0.7-0.9-0.9-1.5C7.5,164.6,7.4,164,7.4,163.3z     M8.8,163.2c0,0.8,0.1,1.5,0.4,2.1s0.6,1,1.2,1.4c0.5,0.3,1.2,0.5,2,0.5c1,0,1.8-0.2,2.5-0.7c0.7-0.5,1.2-1.3,1.6-2.4    c0.4-1.1,0.6-2.2,0.6-3.2c0-0.6-0.1-1.1-0.2-1.6c-0.1-0.5-0.4-0.9-0.7-1.2c-0.3-0.4-0.7-0.6-1.2-0.8c-0.5-0.2-1-0.3-1.5-0.3    c-0.9,0-1.7,0.2-2.4,0.7c-0.7,0.5-1.2,1.2-1.6,2.3C9,160.9,8.8,162,8.8,163.2z"/>
	</g>
	<g>
		<g>
			<line class="st6" x1="158.4" y1="142.6" x2="158.4" y2="140.1"/>
			<line class="st11" x1="158.4" y1="135.2" x2="158.6" y2="59.6"/>
			<line class="st6" x1="158.6" y1="57.1" x2="158.6" y2="54.6"/>
		</g>
	</g>
	<g>
		<g>
			<line class="st4" x1="22.6" y1="142.6" x2="147.9" y2="60.7"/>
			<g>
				<polygon class="st5" points="147.8,65.9 159.1,53.4 143.1,58.6     "/>
			</g>
		</g>
	</g>
	<g>
		<g>
			<line class="st8" x1="22.6" y1="142.6" x2="145.1" y2="142.6"/>
			<g>
				<polygon class="st9" points="142.2,146.9 158.4,142.6 142.2,138.2     "/>
			</g>
		</g>
	</g>
	<g>
		<g>
			<line class="st4" x1="22.6" y1="142.6" x2="82.3" y2="142.6"/>
			<g>
				<polygon class="st5" points="79.4,146.9 95.6,142.6 79.4,138.2     "/>
			</g>
		</g>
	</g>
	<circle class="st12" cx="22.6" cy="142.6" r="5"/>
	<g>
		<g>
			<path d="M99.5,168.6l-0.1-0.1l0.3-1.2c0.2-0.8,0.4-2.1,0.8-4l0.7-3.7c0.1-0.6,0.2-1.1,0.2-1.6l0.1-1c0-0.2,0-0.3,0-0.4     c0-0.2-0.1-0.3-0.2-0.3c-0.1,0-0.2,0-0.4,0.1c-0.2,0.1-0.5,0.3-1.1,0.7l-0.1,0l-0.1-0.2l0-0.1c0.6-0.5,1.1-0.9,1.7-1.2     c0.6-0.3,1-0.5,1.2-0.5c0.3,0,0.4,0.1,0.4,0.4c0,0.3-0.2,1.3-0.5,2.9c0.7-1.1,1.4-1.9,2.2-2.5s1.5-0.8,2.1-0.8     c0.3,0,0.5,0.1,0.6,0.2c0.1,0.1,0.2,0.4,0.3,0.7s0.1,0.7,0.1,1.1c0,0.5-0.1,1.2-0.3,1.9c-0.2,0.7-0.4,1.3-0.7,1.8     s-0.5,0.9-0.9,1.3s-0.7,0.7-1.2,0.9c-0.5,0.3-0.9,0.5-1.2,0.7s-0.6,0.2-0.8,0.2c-0.2,0-0.3,0-0.4,0s-0.4-0.1-0.7-0.2l-0.7,4.7     C100.2,168.4,99.8,168.5,99.5,168.6z M101.8,162.6c0.5,0.3,1,0.4,1.5,0.4c0.4,0,0.8-0.1,1.1-0.3s0.7-0.6,1-1.3s0.6-1.4,0.8-2.1     s0.3-1.4,0.3-1.9c0-0.5,0-0.8-0.1-1s-0.3-0.3-0.5-0.3c-0.3,0-0.6,0.1-1,0.3s-0.8,0.5-1.2,1s-0.8,1-1.1,1.7     c-0.2,0.4-0.4,1-0.5,1.7L101.8,162.6z"/>
			<path d="M109.5,163.8l-0.2-0.1c0.4-1.3,0.8-2.7,1-4.2s0.4-2.4,0.4-2.8c0-0.3-0.1-0.4-0.2-0.4c-0.2,0-0.7,0.3-1.5,0.8l-0.1,0     l-0.1-0.2l0-0.1c0.5-0.4,1.1-0.8,1.6-1.1c0.6-0.3,1-0.5,1.3-0.5c0.2,0,0.4,0.1,0.4,0.4c0,0.3-0.2,1.5-0.6,3.4     c0.5-1,1.1-1.8,1.6-2.4s0.9-1.1,1.1-1.2c0.2-0.1,0.5-0.2,0.7-0.2c0.1,0,0.2,0,0.3,0.1l0,0.1c-0.1,0.3-0.2,0.9-0.3,1.9l-0.2,0.1     c-0.2-0.2-0.4-0.4-0.6-0.4c-0.2,0-0.4,0.1-0.6,0.2c-0.2,0.1-0.5,0.4-0.9,0.8s-0.6,0.9-0.9,1.4c-0.2,0.5-0.5,1.1-0.6,1.7     s-0.3,1.5-0.6,2.6C110.2,163.7,109.8,163.8,109.5,163.8z"/>
			<path d="M115.8,161.1c0-1.1,0.2-2.1,0.6-3.1s1-1.7,1.7-2.2c0.8-0.5,1.5-0.8,2.3-0.8c0.7,0,1.3,0.2,1.7,0.6s0.7,1.1,0.7,2.1     c0,1-0.2,2-0.7,3s-1,1.8-1.8,2.3s-1.5,0.8-2.2,0.8c-0.5,0-0.9-0.1-1.3-0.3s-0.6-0.5-0.8-0.9C115.9,162.2,115.8,161.7,115.8,161.1     z M117.3,161c0,0.5,0,0.9,0.1,1.2s0.3,0.5,0.5,0.7s0.6,0.3,0.9,0.3c0.4,0,0.7-0.1,1-0.3s0.6-0.6,0.8-1.1s0.5-1.2,0.6-1.9     s0.2-1.3,0.2-1.9c0-0.5-0.1-1-0.2-1.3s-0.3-0.6-0.5-0.7s-0.5-0.2-0.9-0.2c-0.9,0-1.6,0.5-2,1.6S117.3,159.6,117.3,161z"/>
			<path d="M122.3,168.5l0.1-0.9l0.1-0.1c0.3,0.1,0.4,0.2,0.5,0.2c0.1,0,0.1,0,0.2,0c0.3,0,0.5-0.2,0.7-0.5s0.4-1.4,0.7-3.1     c0-0.2,0.2-1.1,0.5-2.5c0.3-1.4,0.5-2.6,0.7-3.4l0.2-1.4c0-0.1,0-0.2,0-0.3c0-0.2-0.1-0.3-0.3-0.3c-0.2,0-0.7,0.2-1.4,0.7l-0.1,0     l-0.1-0.2l0-0.1c0.9-0.6,1.5-1,1.9-1.2s0.7-0.3,1-0.3c0.3,0,0.4,0.2,0.4,0.5c0,0.3-0.2,1.1-0.5,2.5l-0.9,4     c-0.3,1.3-0.6,2.4-0.9,3.3c-0.3,0.9-0.6,1.6-0.9,2.1s-0.6,0.8-0.8,0.9c-0.2,0.1-0.5,0.2-0.7,0.2     C122.8,168.6,122.6,168.6,122.3,168.5z M126.6,152.1c0-0.3,0.1-0.6,0.3-0.8s0.4-0.4,0.7-0.4c0.2,0,0.4,0.1,0.5,0.2     c0.1,0.1,0.2,0.3,0.2,0.5c0,0.3-0.1,0.6-0.3,0.9s-0.4,0.4-0.7,0.4c-0.2,0-0.4-0.1-0.5-0.2S126.6,152.3,126.6,152.1z"/>
			<path d="M128.7,166L128.7,166l0.4-1.2c0.1-0.1,0.3-0.1,0.4-0.1c0.1,0,0.3,0,0.7,0c0.3,0,0.5,0,0.6,0c0.2,0,0.4,0,0.6-0.1l0.1,0.1     c-0.9,1.1-1.4,2.2-1.4,3.3c0,0.7,0.2,1.1,0.6,1.1c0.3,0,0.6-0.3,1-0.9c0.4-0.6,0.7-1.8,1-3.4c0.3,0,0.5-0.1,0.8-0.2l0.1,0.1     c-0.5,1.6-0.8,2.8-0.8,3.5c0,0.3,0.1,0.5,0.2,0.7c0.1,0.2,0.3,0.3,0.5,0.3c0.5,0,0.9-0.3,1.2-1s0.5-1.4,0.5-2     c0-0.5-0.2-0.8-0.5-0.8c-0.1,0-0.2,0-0.3,0.1l-0.1,0l-0.1-0.1v-0.1c0.2-0.2,0.4-0.4,0.5-0.5c0.1,0,0.2-0.1,0.3-0.1     c0.5,0,0.7,0.3,0.7,1c0,0.6-0.2,1.2-0.5,1.8s-0.7,1.2-1.2,1.6c-0.5,0.4-0.9,0.6-1.2,0.6c-0.3,0-0.5-0.1-0.6-0.3     c-0.2-0.2-0.2-0.4-0.2-0.7c0-0.3,0-0.6,0.1-1l-0.3,0.6c-0.2,0.4-0.5,0.8-0.8,1c-0.3,0.2-0.6,0.4-0.8,0.4c-0.3,0-0.5-0.1-0.7-0.4     s-0.3-0.6-0.3-1c0-0.5,0.1-0.9,0.3-1.4c0.2-0.5,0.6-1,1.2-1.7c-0.1,0-0.3,0-0.7,0l-0.2,0c-0.2,0-0.4,0-0.6,0.1     c-0.1,0.1-0.2,0.3-0.3,0.6l-0.1,0H128.7z"/>
			<path d="M141,167.7c-1.2-1-2.2-2.3-2.8-3.7s-1-3-1-4.7c0-1.3,0.2-2.5,0.6-3.6s0.9-2,1.6-2.9c0.7-0.9,1.3-1.5,1.8-1.9l0.1,0     l0.3,0.3v0.1c-1.8,2-2.7,4.5-2.7,7.7c0,1.8,0.2,3.3,0.6,4.5c0.4,1.2,1.1,2.5,2.1,3.7l0,0.1l-0.3,0.3L141,167.7z"/>
			<path d="M142.4,157.4l0.7-2c0.3-0.1,0.5-0.1,0.7-0.1c0.2,0,0.6,0,1.1,0.1c0.5,0,0.8,0.1,1,0.1c0.4,0,0.7,0,1-0.1l0.2,0.2     c-1.6,2-2.4,3.8-2.4,5.6c0,0.6,0.1,1,0.4,1.4s0.6,0.5,1,0.5c0.6,0,1.1-0.3,1.6-0.9s0.9-1.3,1.2-2.2s0.5-1.7,0.5-2.4     c0-0.8-0.3-1.2-0.8-1.2c-0.1,0-0.3,0-0.4,0.1l-0.1,0l-0.1-0.2v-0.1c0.2-0.2,0.4-0.4,0.7-0.6l0.3-0.3c0.1-0.1,0.2-0.1,0.3-0.1     c0.4,0,0.7,0.2,0.9,0.5c0.2,0.3,0.3,0.7,0.3,1.2c0,1-0.3,2.1-0.9,3.3s-1.3,2.1-2.1,2.8s-1.5,1-2.2,1c-0.5,0-1-0.2-1.4-0.6     c-0.4-0.4-0.6-1-0.6-1.7c0-0.8,0.2-1.6,0.6-2.5s1.1-1.8,2.1-3c-0.1,0-0.6,0.1-1.3,0.1l-0.4,0c-0.4,0-0.8,0-1.1,0.1     c-0.1,0.1-0.3,0.5-0.6,1l-0.1,0.1L142.4,157.4L142.4,157.4z"/>
			<path d="M152.2,167.7l-0.1,0l-0.3-0.3v-0.1c1-1.2,1.7-2.5,2.1-3.7s0.6-2.7,0.6-4.5c0-3.2-0.9-5.7-2.7-7.7v-0.1l0.3-0.3l0.1,0     c0.9,0.7,1.8,1.7,2.6,3.2c0.9,1.5,1.3,3.2,1.3,5.2c0,1.6-0.3,3.2-1,4.6S153.5,166.6,152.2,167.7z"/>
		</g>
		<g>
			<g>
				<line class="st3" x1="143.8" y1="152.1" x2="148.5" y2="152.1"/>
				<g>
					<polygon points="147.9,154.1 151.3,152.1 147.9,150.1      "/>
				</g>
			</g>
		</g>
		<g>
			<g>
				<line class="st3" x1="129.2" y1="161.7" x2="133.8" y2="161.7"/>
				<g>
					<polygon points="133.3,163.2 135.9,161.7 133.3,160.2      "/>
				</g>
			</g>
		</g>
	</g>
	<g>
		<path d="M60.4,132c0-0.6,0.1-1.3,0.2-2.3s0.4-1.9,0.7-2.8c0.4-0.9,0.8-1.6,1.3-2.2c0.5-0.6,1.1-1,1.8-1.3s1.4-0.4,2.1-0.4    c1,0,1.8,0.3,2.2,0.9s0.7,1.5,0.7,2.7c0,0.7-0.1,1.5-0.3,2.4s-0.4,1.8-0.7,2.6c-0.3,0.8-0.6,1.4-0.9,1.9c-0.3,0.5-0.7,0.9-1.2,1.3    c-0.4,0.4-0.9,0.7-1.4,0.8s-1,0.3-1.5,0.3c-1.1,0-1.8-0.3-2.3-1S60.4,133.3,60.4,132z M62,129.3c-0.1,0.8-0.2,1.4-0.2,1.7    s0,0.6,0,0.9c0,1.1,0.2,2,0.5,2.5s0.8,0.9,1.5,0.9c0.7,0,1.2-0.2,1.7-0.6c0.5-0.4,0.9-1.1,1.3-2.1c0.4-1,0.8-2.1,1-3.4H62z     M67.8,128.7c0.2-1,0.3-1.9,0.3-2.4c0-1-0.2-1.7-0.5-2.1s-0.8-0.7-1.4-0.7c-0.9,0-1.7,0.5-2.4,1.5s-1.3,2.3-1.6,3.8H67.8z"/>
	</g>
</g>
<g id="Layer_3" class="st1">
	<g class="st2">
		<g>
			<path d="M73.9,35.7l0.7-2c0.3-0.1,0.5-0.1,0.7-0.1c0.2,0,0.6,0,1.1,0.1c0.5,0,0.8,0.1,1,0.1c0.4,0,0.7,0,1-0.1l0.2,0.2     c-1.6,2-2.4,3.8-2.4,5.6c0,0.6,0.1,1,0.4,1.4s0.6,0.5,1,0.5c0.6,0,1.1-0.3,1.6-0.9s0.9-1.3,1.2-2.2s0.5-1.7,0.5-2.4     c0-0.8-0.3-1.2-0.8-1.2c-0.1,0-0.3,0-0.4,0.1l-0.1,0l-0.1-0.2v-0.1c0.2-0.2,0.4-0.4,0.7-0.6l0.3-0.3c0.1-0.1,0.2-0.1,0.3-0.1     c0.4,0,0.7,0.2,0.9,0.5s0.3,0.7,0.3,1.2c0,1-0.3,2.1-0.9,3.3s-1.3,2.1-2.1,2.8c-0.8,0.7-1.5,1-2.2,1c-0.5,0-1-0.2-1.4-0.6     s-0.6-1-0.6-1.7c0-0.8,0.2-1.6,0.6-2.5s1.1-1.8,2.1-3c-0.1,0-0.6,0.1-1.3,0.1l-0.4,0c-0.4,0-0.8,0-1.1,0.1     c-0.1,0.1-0.3,0.5-0.6,1l-0.1,0.1L73.9,35.7L73.9,35.7z"/>
		</g>
		<g>
			<g>
				<line class="st3" x1="75.5" y1="27.9" x2="80.2" y2="27.9"/>
				<g>
					<polygon points="79.6,29.9 83,27.9 79.6,25.9      "/>
				</g>
			</g>
		</g>
	</g>
	<g class="st2">
		<g>
			<path d="M230.2,157.1L230.2,157.1l0.6-2.1c0.2-0.1,0.4-0.1,0.6-0.1c0.2,0,0.5,0,0.9,0.1c0.4,0,0.7,0.1,0.9,0.1     c0.3,0,0.6,0,0.8-0.1l0.1,0.2c-1.4,2-2,3.8-2,5.6c0,1.2,0.3,1.8,0.9,1.8c0.4,0,0.9-0.5,1.5-1.6s1.1-3,1.4-5.8     c0.4-0.1,0.8-0.2,1.1-0.4l0.1,0.1c-0.7,2.8-1.1,4.8-1.1,6.1c0,0.5,0.1,0.8,0.3,1.1c0.2,0.3,0.4,0.4,0.7,0.4     c0.7,0,1.3-0.6,1.8-1.8s0.8-2.4,0.8-3.5c0-0.9-0.2-1.3-0.7-1.3c-0.1,0-0.3,0-0.4,0.1l-0.1,0l-0.1-0.2v-0.1     c0.3-0.3,0.6-0.6,0.8-0.9c0.1-0.1,0.3-0.1,0.4-0.1c0.7,0,1.1,0.6,1.1,1.8c0,0.9-0.2,2-0.7,3.1s-1,2.1-1.7,2.8     c-0.7,0.7-1.3,1.1-1.8,1.1c-0.4,0-0.7-0.2-0.9-0.5c-0.2-0.3-0.3-0.8-0.3-1.3c0-0.5,0-1.1,0.1-1.7l-0.5,1.1     c-0.3,0.7-0.7,1.3-1.1,1.7s-0.8,0.6-1.2,0.6c-0.4,0-0.7-0.2-1-0.6c-0.2-0.4-0.4-1-0.4-1.7c0-0.8,0.2-1.6,0.5-2.4     c0.3-0.8,0.9-1.8,1.8-3c-0.1,0-0.5,0.1-1.1,0.1l-0.3,0c-0.3,0-0.6,0-0.9,0.1c-0.1,0.1-0.3,0.5-0.5,1l-0.1,0.1H230.2z"/>
		</g>
		<g>
			<g>
				<line class="st3" x1="231.8" y1="149.3" x2="236.5" y2="149.3"/>
				<g>
					<polygon points="235.9,151.3 239.4,149.3 235.9,147.3      "/>
				</g>
			</g>
		</g>
	</g>
	<g class="st2">
		<path d="M120.4,163.3c0-0.7,0.1-1.5,0.3-2.3s0.6-1.6,1.2-2.3s1.3-1.3,2.1-1.7s1.8-0.6,2.9-0.6c0.9,0,1.7,0.2,2.4,0.5    s1.2,0.8,1.6,1.4s0.6,1.5,0.6,2.5c0,1.4-0.3,2.6-1,3.8s-1.5,2-2.5,2.6s-2.1,0.8-3.2,0.8c-0.6,0-1.2-0.1-1.7-0.3s-1-0.5-1.5-0.9    s-0.7-0.9-0.9-1.5S120.4,164,120.4,163.3z M121.8,163.2c0,0.8,0.1,1.5,0.4,2.1s0.6,1,1.2,1.4s1.2,0.5,2,0.5c1,0,1.8-0.2,2.5-0.7    s1.2-1.3,1.6-2.4s0.6-2.2,0.6-3.2c0-0.6-0.1-1.1-0.2-1.6s-0.4-0.9-0.7-1.2s-0.7-0.6-1.2-0.8s-1-0.3-1.5-0.3    c-0.9,0-1.7,0.2-2.4,0.7s-1.2,1.2-1.6,2.3S121.8,162,121.8,163.2z"/>
	</g>
	<g class="st2">
		<g>
			<line class="st4" x1="135.6" y1="142.6" x2="258.1" y2="142.6"/>
			<g>
				<polygon class="st5" points="255.2,146.9 271.4,142.6 255.2,138.2     "/>
			</g>
		</g>
	</g>
	<g class="st2">
		<g>
			<line class="st6" x1="45" y1="142.6" x2="45" y2="140.1"/>
			<line class="st13" x1="45" y1="135" x2="45.1" y2="15.5"/>
			<line class="st6" x1="45.1" y1="13" x2="45.1" y2="10.5"/>
		</g>
	</g>
	<g class="st2">
		<g>
			<line class="st4" x1="135.6" y1="142.6" x2="51.3" y2="18.8"/>
			<g>
				<polygon class="st5" points="56.6,18.8 43.8,7.8 49.4,23.7     "/>
			</g>
		</g>
	</g>
	<g class="st2">
		<g>
			<line class="st8" x1="135.6" y1="142.6" x2="58.2" y2="142.6"/>
			<g>
				<polygon class="st9" points="61.2,138.2 45,142.6 61.2,146.9     "/>
			</g>
		</g>
	</g>
	<circle class="st10" cx="135.6" cy="142.6" r="5"/>
	<g class="st2">
		<g>
			<path d="M37.9,168.6l-0.1-0.1l0.3-1.2c0.2-0.8,0.4-2.1,0.8-4l0.7-3.7c0.1-0.6,0.2-1.1,0.2-1.6l0.1-1c0-0.2,0-0.3,0-0.4     c0-0.2-0.1-0.3-0.2-0.3c-0.1,0-0.2,0-0.4,0.1c-0.2,0.1-0.5,0.3-1.1,0.7l-0.1,0l-0.1-0.2l0-0.1c0.6-0.5,1.1-0.9,1.7-1.2     c0.6-0.3,1-0.5,1.2-0.5c0.3,0,0.4,0.1,0.4,0.4c0,0.3-0.2,1.3-0.5,2.9c0.7-1.1,1.4-1.9,2.2-2.5s1.5-0.8,2.1-0.8     c0.3,0,0.5,0.1,0.6,0.2c0.1,0.1,0.2,0.4,0.3,0.7s0.1,0.7,0.1,1.1c0,0.5-0.1,1.2-0.3,1.9c-0.2,0.7-0.4,1.3-0.7,1.8     s-0.5,0.9-0.9,1.3s-0.7,0.7-1.2,0.9c-0.5,0.3-0.9,0.5-1.2,0.7s-0.6,0.2-0.8,0.2c-0.2,0-0.3,0-0.4,0s-0.4-0.1-0.7-0.2l-0.7,4.7     C38.6,168.4,38.1,168.5,37.9,168.6z M40.1,162.6c0.5,0.3,1,0.4,1.5,0.4c0.4,0,0.8-0.1,1.1-0.3s0.7-0.6,1-1.3s0.6-1.4,0.8-2.1     s0.3-1.4,0.3-1.9c0-0.5,0-0.8-0.1-1s-0.3-0.3-0.5-0.3c-0.3,0-0.6,0.1-1,0.3s-0.8,0.5-1.2,1s-0.8,1-1.1,1.7     c-0.2,0.4-0.4,1-0.5,1.7L40.1,162.6z"/>
			<path d="M47.9,163.8l-0.2-0.1c0.4-1.3,0.8-2.7,1-4.2s0.4-2.4,0.4-2.8c0-0.3-0.1-0.4-0.2-0.4c-0.2,0-0.7,0.3-1.5,0.8l-0.1,0     l-0.1-0.2l0-0.1c0.5-0.4,1.1-0.8,1.6-1.1c0.6-0.3,1-0.5,1.3-0.5c0.2,0,0.4,0.1,0.4,0.4c0,0.3-0.2,1.5-0.6,3.4     c0.5-1,1.1-1.8,1.6-2.4s0.9-1.1,1.1-1.2c0.2-0.1,0.5-0.2,0.7-0.2c0.1,0,0.2,0,0.3,0.1l0,0.1c-0.1,0.3-0.2,0.9-0.3,1.9l-0.2,0.1     c-0.2-0.2-0.4-0.4-0.6-0.4c-0.2,0-0.4,0.1-0.6,0.2c-0.2,0.1-0.5,0.4-0.9,0.8s-0.6,0.9-0.9,1.4c-0.2,0.5-0.5,1.1-0.6,1.7     s-0.3,1.5-0.6,2.6C48.5,163.7,48.1,163.8,47.9,163.8z"/>
			<path d="M54.2,161.1c0-1.1,0.2-2.1,0.6-3.1s1-1.7,1.7-2.2c0.8-0.5,1.5-0.8,2.3-0.8c0.7,0,1.3,0.2,1.7,0.6s0.7,1.1,0.7,2.1     c0,1-0.2,2-0.7,3s-1,1.8-1.8,2.3s-1.5,0.8-2.2,0.8c-0.5,0-0.9-0.1-1.3-0.3s-0.6-0.5-0.8-0.9C54.3,162.2,54.2,161.7,54.2,161.1z      M55.6,161c0,0.5,0,0.9,0.1,1.2s0.3,0.5,0.5,0.7s0.6,0.3,0.9,0.3c0.4,0,0.7-0.1,1-0.3s0.6-0.6,0.8-1.1s0.5-1.2,0.6-1.9     s0.2-1.3,0.2-1.9c0-0.5-0.1-1-0.2-1.3s-0.3-0.6-0.5-0.7s-0.5-0.2-0.9-0.2c-0.9,0-1.6,0.5-2,1.6S55.6,159.6,55.6,161z"/>
			<path d="M60.7,168.5l0.1-0.9l0.1-0.1c0.3,0.1,0.4,0.2,0.5,0.2c0.1,0,0.1,0,0.2,0c0.3,0,0.5-0.2,0.7-0.5s0.4-1.4,0.7-3.1     c0-0.2,0.2-1.1,0.5-2.5c0.3-1.4,0.5-2.6,0.7-3.4l0.2-1.4c0-0.1,0-0.2,0-0.3c0-0.2-0.1-0.3-0.3-0.3c-0.2,0-0.7,0.2-1.4,0.7l-0.1,0     l-0.1-0.2l0-0.1c0.9-0.6,1.5-1,1.9-1.2s0.7-0.3,1-0.3c0.3,0,0.4,0.2,0.4,0.5c0,0.3-0.2,1.1-0.5,2.5l-0.9,4     c-0.3,1.3-0.6,2.4-0.9,3.3c-0.3,0.9-0.6,1.6-0.9,2.1s-0.6,0.8-0.8,0.9c-0.2,0.1-0.5,0.2-0.7,0.2     C61.2,168.6,60.9,168.6,60.7,168.5z M65,152.1c0-0.3,0.1-0.6,0.3-0.8s0.4-0.4,0.7-0.4c0.2,0,0.4,0.1,0.5,0.2     c0.1,0.1,0.2,0.3,0.2,0.5c0,0.3-0.1,0.6-0.3,0.9s-0.4,0.4-0.7,0.4c-0.2,0-0.4-0.1-0.5-0.2S65,152.3,65,152.1z"/>
			<path d="M67.1,166L67.1,166l0.4-1.2c0.1-0.1,0.3-0.1,0.4-0.1c0.1,0,0.3,0,0.7,0c0.3,0,0.5,0,0.6,0c0.2,0,0.4,0,0.6-0.1l0.1,0.1     c-0.9,1.1-1.4,2.2-1.4,3.3c0,0.7,0.2,1.1,0.6,1.1c0.3,0,0.6-0.3,1-0.9c0.4-0.6,0.7-1.8,1-3.4c0.3,0,0.5-0.1,0.8-0.2l0.1,0.1     c-0.5,1.6-0.8,2.8-0.8,3.5c0,0.3,0.1,0.5,0.2,0.7c0.1,0.2,0.3,0.3,0.5,0.3c0.5,0,0.9-0.3,1.2-1s0.5-1.4,0.5-2     c0-0.5-0.2-0.8-0.5-0.8c-0.1,0-0.2,0-0.3,0.1l-0.1,0l-0.1-0.1v-0.1c0.2-0.2,0.4-0.4,0.5-0.5c0.1,0,0.2-0.1,0.3-0.1     c0.5,0,0.7,0.3,0.7,1c0,0.6-0.2,1.2-0.5,1.8s-0.7,1.2-1.2,1.6c-0.5,0.4-0.9,0.6-1.2,0.6c-0.3,0-0.5-0.1-0.6-0.3     c-0.2-0.2-0.2-0.4-0.2-0.7c0-0.3,0-0.6,0.1-1l-0.3,0.6c-0.2,0.4-0.5,0.8-0.8,1c-0.3,0.2-0.6,0.4-0.8,0.4c-0.3,0-0.5-0.1-0.7-0.4     s-0.3-0.6-0.3-1c0-0.5,0.1-0.9,0.3-1.4c0.2-0.5,0.6-1,1.2-1.7c-0.1,0-0.3,0-0.7,0l-0.2,0c-0.2,0-0.4,0-0.6,0.1     c-0.1,0.1-0.2,0.3-0.3,0.6l-0.1,0H67.1z"/>
			<path d="M79.3,167.7c-1.2-1-2.2-2.3-2.8-3.7s-1-3-1-4.7c0-1.3,0.2-2.5,0.6-3.6s0.9-2,1.6-2.9c0.7-0.9,1.3-1.5,1.8-1.9l0.1,0     l0.3,0.3v0.1c-1.8,2-2.7,4.5-2.7,7.7c0,1.8,0.2,3.3,0.6,4.5c0.4,1.2,1.1,2.5,2.1,3.7l0,0.1l-0.3,0.3L79.3,167.7z"/>
			<path d="M80.8,157.4l0.7-2c0.3-0.1,0.5-0.1,0.7-0.1c0.2,0,0.6,0,1.1,0.1c0.5,0,0.8,0.1,1,0.1c0.4,0,0.7,0,1-0.1l0.2,0.2     c-1.6,2-2.4,3.8-2.4,5.6c0,0.6,0.1,1,0.4,1.4s0.6,0.5,1,0.5c0.6,0,1.1-0.3,1.6-0.9s0.9-1.3,1.2-2.2s0.5-1.7,0.5-2.4     c0-0.8-0.3-1.2-0.8-1.2c-0.1,0-0.3,0-0.4,0.1l-0.1,0l-0.1-0.2v-0.1c0.2-0.2,0.4-0.4,0.7-0.6l0.3-0.3c0.1-0.1,0.2-0.1,0.3-0.1     c0.4,0,0.7,0.2,0.9,0.5c0.2,0.3,0.3,0.7,0.3,1.2c0,1-0.3,2.1-0.9,3.3s-1.3,2.1-2.1,2.8s-1.5,1-2.2,1c-0.5,0-1-0.2-1.4-0.6     c-0.4-0.4-0.6-1-0.6-1.7c0-0.8,0.2-1.6,0.6-2.5s1.1-1.8,2.1-3c-0.1,0-0.6,0.1-1.3,0.1l-0.4,0c-0.4,0-0.8,0-1.1,0.1     c-0.1,0.1-0.3,0.5-0.6,1l-0.1,0.1L80.8,157.4L80.8,157.4z"/>
			<path d="M90.6,167.7l-0.1,0l-0.3-0.3v-0.1c1-1.2,1.7-2.5,2.1-3.7s0.6-2.7,0.6-4.5c0-3.2-0.9-5.7-2.7-7.7v-0.1l0.3-0.3l0.1,0     c0.9,0.7,1.8,1.7,2.6,3.2c0.9,1.5,1.3,3.2,1.3,5.2c0,1.6-0.3,3.2-1,4.6S91.9,166.6,90.6,167.7z"/>
		</g>
		<g>
			<g>
				<line class="st3" x1="82.1" y1="152.1" x2="86.8" y2="152.1"/>
				<g>
					<polygon points="86.2,154.1 89.7,152.1 86.2,150.1      "/>
				</g>
			</g>
		</g>
		<g>
			<g>
				<line class="st3" x1="67.6" y1="161.7" x2="72.1" y2="161.7"/>
				<g>
					<polygon points="71.7,163.2 74.3,161.7 71.7,160.2      "/>
				</g>
			</g>
		</g>
	</g>
	<g class="st2">
		<path d="M146.4,122.4c0-0.6,0.1-1.3,0.2-2.3s0.4-1.9,0.7-2.8c0.4-0.9,0.8-1.6,1.3-2.2c0.5-0.6,1.1-1,1.8-1.3s1.4-0.4,2.1-0.4    c1,0,1.8,0.3,2.2,0.9s0.7,1.5,0.7,2.7c0,0.7-0.1,1.5-0.3,2.4s-0.4,1.8-0.7,2.6c-0.3,0.8-0.6,1.4-0.9,1.9c-0.3,0.5-0.7,0.9-1.2,1.3    c-0.4,0.4-0.9,0.7-1.4,0.8s-1,0.3-1.5,0.3c-1.1,0-1.8-0.3-2.3-1S146.4,123.7,146.4,122.4z M148.1,119.7c-0.1,0.8-0.2,1.4-0.2,1.7    s0,0.6,0,0.9c0,1.1,0.2,2,0.5,2.5s0.8,0.9,1.5,0.9c0.7,0,1.2-0.2,1.7-0.6c0.5-0.4,0.9-1.1,1.3-2.1c0.4-1,0.8-2.1,1-3.4H148.1z     M153.9,119.2c0.2-1,0.3-1.9,0.3-2.4c0-1-0.2-1.7-0.5-2.1s-0.8-0.7-1.4-0.7c-0.9,0-1.7,0.5-2.4,1.5s-1.3,2.3-1.6,3.8H153.9z"/>
	</g>
</g>
</svg>